<svg height="512pt" viewBox="0 0 512 512" width="512pt" xmlns="http://www.w3.org/2000/svg"><path d="m497 256c0 133.101562-107.898438 241-241 241s-241-107.898438-241-241 107.898438-241 241-241 241 107.898438 241 241zm0 0" fill="#fef4f5"/><path d="m256 15v482c133.101562 0 241-107.898438 241-241s-107.898438-241-241-241zm0 0" fill="#d5eded"/><path d="m155.597656 97.074219c-5.1875 0-10.226562-2.6875-13.003906-7.503907l-20.082031-34.785156c-4.144531-7.171875-1.6875-16.347656 5.488281-20.488281 7.175781-4.144531 16.347656-1.683594 20.488281 5.488281l20.085938 34.785156c4.140625 7.175782 1.683593 16.351563-5.488281 20.492188-2.363282 1.363281-4.941407 2.011719-7.488282 2.011719zm0 0" fill="#663325"/><path d="m376.515625 479.714844c-5.1875 0-10.226563-2.691406-13.003906-7.503906l-20.082031-34.785157c-4.144532-7.175781-1.6875-16.347656 5.488281-20.488281 7.175781-4.148438 16.347656-1.683594 20.488281 5.488281l20.082031 34.785157c4.144531 7.175781 1.6875 16.347656-5.488281 20.488281-2.359375 1.367187-4.941406 2.015625-7.484375 2.015625zm0 0" fill="#3c1b13"/><path d="m429.941406 170.585938c-5.183594 0-10.226562-2.691407-13.003906-7.503907-4.144531-7.175781-1.683594-16.347656 5.488281-20.488281l34.785157-20.082031c7.175781-4.148438 16.347656-1.6875 20.492187 5.488281 4.140625 7.175781 1.683594 16.347656-5.492187 20.488281l-34.785157 20.085938c-2.359375 1.363281-4.941406 2.011719-7.484375 2.011719zm0 0" fill="#3c1b13"/><path d="m47.304688 391.503906c-5.1875 0-10.230469-2.691406-13.003907-7.503906-4.144531-7.175781-1.6875-16.347656 5.488281-20.488281l34.785157-20.085938c7.171875-4.140625 16.347656-1.683593 20.488281 5.488281 4.140625 7.175782 1.683594 16.351563-5.488281 20.492188l-34.785157 20.082031c-2.363281 1.363281-4.941406 2.015625-7.484374 2.015625zm0 0" fill="#663325"/><path d="m82.058594 170.585938c-2.542969 0-5.121094-.648438-7.484375-2.011719l-34.785157-20.082031c-7.175781-4.144532-9.632812-13.316407-5.492187-20.492188 4.144531-7.171875 13.316406-9.636719 20.492187-5.488281l34.785157 20.082031c7.175781 4.140625 9.632812 13.3125 5.492187 20.488281-2.78125 4.8125-7.824218 7.503907-13.007812 7.503907zm0 0" fill="#663325"/><path d="m464.699219 391.503906c-2.546875 0-5.125-.648437-7.484375-2.015625l-34.785156-20.082031c-7.175782-4.140625-9.632813-13.3125-5.492188-20.488281 4.144531-7.175781 13.316406-9.636719 20.492188-5.488281l34.785156 20.082031c7.171875 4.140625 9.632812 13.3125 5.488281 20.488281-2.777344 4.8125-7.820313 7.503906-13.003906 7.503906zm0 0" fill="#3c1b13"/><path d="m356.402344 97.074219c-2.542969 0-5.121094-.648438-7.484375-2.011719-7.175781-4.140625-9.632813-13.316406-5.488281-20.488281l20.082031-34.785157c4.144531-7.175781 13.316406-9.636718 20.492187-5.492187 7.171875 4.144531 9.632813 13.316406 5.488282 20.492187l-20.085938 34.785157c-2.773438 4.8125-7.816406 7.5-13.003906 7.5zm0 0" fill="#3c1b13"/><path d="m135.488281 479.714844c-2.546875 0-5.125-.648438-7.484375-2.011719-7.175781-4.140625-9.636718-13.316406-5.492187-20.488281l20.085937-34.785156c4.140625-7.175782 13.3125-9.636719 20.488282-5.492188 7.175781 4.140625 9.632812 13.316406 5.488281 20.492188l-20.082031 34.785156c-2.777344 4.808594-7.820313 7.5-13.003907 7.5zm0 0" fill="#663325"/><path d="m256 110.332031c-8.28125 0-15-6.714843-15-15v-80.332031c0-8.285156 6.71875-15 15-15 8.285156 0 15 6.714844 15 15v80.332031c0 8.285157-6.714844 15-15 15zm0 0" fill="#663325"/><path d="m271 95.332031v-80.332031c0-8.285156-6.714844-15-15-15v110.332031c8.285156 0 15-6.714843 15-15zm0 0" fill="#3c1b13"/><path d="m256 512c-8.28125 0-15-6.714844-15-15v-80.335938c0-8.28125 6.71875-15 15-15 8.285156 0 15 6.71875 15 15v80.335938c0 8.285156-6.714844 15-15 15zm0 0" fill="#663325"/><path d="m271 497v-80.335938c0-8.28125-6.714844-15-15-15v110.335938c8.285156 0 15-6.714844 15-15zm0 0" fill="#3c1b13"/><path d="m497 271h-80.332031c-8.285157 0-15-6.714844-15-15s6.714843-15 15-15h80.332031c8.285156 0 15 6.714844 15 15s-6.714844 15-15 15zm0 0" fill="#3c1b13"/><path d="m95.335938 271h-80.335938c-8.28125 0-15-6.714844-15-15s6.71875-15 15-15h80.335938c8.28125 0 15 6.714844 15 15s-6.71875 15-15 15zm0 0" fill="#663325"/><path d="m245.398438 296.410156h-44.671876v-3.855468c0-16.710938 50.9375-27.960938 50.9375-62.664063 0-20.40625-17.351562-32.617187-35.992187-32.617187-17.832031 0-34.546875 11.246093-34.546875 29.566406 0 8.675781 4.019531 11.246094 9.480469 11.246094 6.910156 0 10.925781-3.859376 10.925781-7.714844 0-9.960938 6.429688-14.140625 14.300781-14.140625 10.605469 0 14.941407 7.714843 14.941407 14.300781 0 22.65625-51.734376 36.3125-51.734376 62.023438v15.585937c0 4.015625 5.464844 6.585937 9.15625 6.585937h57.203126c3.53125 0 6.585937-4.5 6.585937-9.320312 0-4.816406-3.050781-8.996094-6.585937-8.996094zm0 0" fill="#663325"/><path d="m326.371094 269.738281h-7.550782v-16.871093c0-4.660157-5.140624-6.589844-10.441406-6.589844-5.144531 0-10.445312 1.929687-10.445312 6.589844v16.871093h-18.796875l30.847656-61.699219c.480469-.964843.804687-1.929687.804687-2.734374 0-4.820313-6.75-8.035157-10.445312-8.035157-3.375 0-6.90625 1.449219-8.835938 5.464844l-38.082031 74.875c-.800781 1.449219-1.121093 2.894531-1.121093 4.179687 0 4.660157 3.050781 7.390626 7.070312 7.390626h38.558594v18.960937c0 4.335937 5.304687 6.585937 10.445312 6.585937 5.300782 0 10.445313-2.25 10.445313-6.585937v-18.960937h7.550781c3.375 0 6.589844-4.820313 6.589844-9.640626 0-4.980468-2.25-9.800781-6.59375-9.800781zm0 0" fill="#3c1b13"/><path d="m256 512c-68.378906 0-132.667969-26.628906-181.019531-74.980469-48.351563-48.351562-74.980469-112.640625-74.980469-181.019531s26.628906-132.667969 74.980469-181.019531c48.351562-48.351563 112.640625-74.980469 181.019531-74.980469s132.664062 26.628906 181.019531 74.980469c48.351563 48.351562 74.980469 112.640625 74.980469 181.019531s-26.628906 132.667969-74.980469 181.019531c-48.355469 48.351563-112.640625 74.980469-181.019531 74.980469zm0-482c-124.617188 0-226 101.382812-226 226s101.382812 226 226 226 226-101.382812 226-226-101.382812-226-226-226zm0 0" fill="#54e360"/><path d="m437.019531 74.980469c-48.355469-48.351563-112.640625-74.980469-181.019531-74.980469v30c124.617188 0 226 101.382812 226 226s-101.382812 226-226 226v30c68.378906 0 132.664062-26.628906 181.019531-74.980469 48.351563-48.351562 74.980469-112.640625 74.980469-181.019531s-26.628906-132.667969-74.980469-181.019531zm0 0" fill="#00ab5e"/></svg>