<svg height="512pt" viewBox="0 -20 512 512" width="512pt" xmlns="http://www.w3.org/2000/svg"><g fill="#f45a3c"><path d="m20.84375 109.253906h117.957031c11.492188 0 20.84375-9.351562 20.84375-20.84375 0-.039062 0-.078125 0-.117187l-1.023437-67.511719c-.035156-11.464844-9.371094-20.78125-20.847656-20.78125h-116.929688c-11.492188 0-20.84375 9.351562-20.84375 20.847656v67.5625c0 11.492188 9.351562 20.84375 20.84375 20.84375zm0 0"/><path d="m195.515625 109.253906h117.953125c11.496094 0 20.847656-9.351562 20.847656-20.84375 0-.039062 0-.078125 0-.117187l-1.023437-67.511719c-.035157-11.464844-9.375-20.78125-20.847657-20.78125h-116.929687c-11.496094 0-20.847656 9.351562-20.847656 20.847656v67.5625c0 11.492188 9.351562 20.84375 20.847656 20.84375zm0 0"/><path d="m370.183594 109.253906h120.972656c11.492188 0 20.84375-9.351562 20.84375-20.84375 0-.039062 0-.078125 0-.117187l-1.023438-67.507813c-.03125-11.464844-9.371093-20.785156-20.847656-20.785156h-119.945312c-11.492188 0-20.84375 9.351562-20.84375 20.847656v67.558594c0 11.496094 9.351562 20.847656 20.84375 20.847656zm0 0"/><path d="m246.066406 141.539062c-.035156-11.464843-9.375-20.78125-20.847656-20.78125h-204.375c-11.492188 0-20.84375 9.351563-20.84375 20.84375v67.5625c0 11.496094 9.351562 20.847657 20.84375 20.847657h205.398438c11.496093 0 20.847656-9.351563 20.847656-20.847657 0-.035156 0-.074218 0-.113281zm0 0"/><path d="m510.976562 141.539062c-.035156-11.464843-9.371093-20.78125-20.847656-20.78125h-206.382812c-11.496094 0-20.847656 9.351563-20.847656 20.84375v67.5625c0 11.496094 9.351562 20.847657 20.847656 20.847657h207.410156c11.492188 0 20.84375-9.351563 20.84375-20.847657 0-.035156 0-.074218 0-.113281zm0 0"/><path d="m246.066406 382.527344c-.035156-11.464844-9.375-20.78125-20.847656-20.78125h-204.375c-11.492188-.003906-20.84375 9.351562-20.84375 20.84375v67.5625c0 11.496094 9.351562 20.847656 20.84375 20.847656h205.398438c11.496093 0 20.847656-9.351562 20.847656-20.847656 0-.039063 0-.078125 0-.113282zm0 0"/><path d="m510.976562 382.527344c-.035156-11.464844-9.371093-20.78125-20.847656-20.78125h-207.386718c-11.496094 0-20.847657 9.351562-20.847657 20.84375v67.5625c0 11.496094 9.351563 20.847656 20.847657 20.847656h208.414062c11.492188 0 20.84375-9.351562 20.84375-20.847656 0-.039063 0-.078125 0-.113282zm0 0"/><path d="m20.84375 349.695312h117.957031c11.492188 0 20.84375-9.351562 20.84375-20.847656 0-.039062 0-.074218 0-.113281l-1.023437-67.511719c-.035156-11.464844-9.371094-20.785156-20.847656-20.785156h-116.929688c-11.492188 0-20.84375 9.355469-20.84375 20.847656v67.5625c0 11.496094 9.351562 20.847656 20.84375 20.847656zm0 0"/><path d="m510.976562 261.222656c-.035156-11.464844-9.371093-20.785156-20.847656-20.785156h-118.9375c-11.496094 0-20.847656 9.351562-20.847656 20.847656v67.5625c0 11.492188 9.351562 20.84375 20.847656 20.84375h119.964844c11.492188 0 20.84375-9.351562 20.84375-20.84375 0-.039062 0-.078125 0-.113281zm0 0"/></g><path d="m159.644531 88.292969-1.023437-67.511719c-.035156-11.464844-9.371094-20.78125-20.847656-20.78125h-23.117188c11.472656 0 20.8125 9.316406 20.847656 20.78125l1.023438 67.511719v.117187c0 11.492188-9.351563 20.84375-20.847656 20.84375h23.121093c11.492188 0 20.84375-9.351562 20.84375-20.84375 0-.039062 0-.078125 0-.117187zm0 0" fill="#e24a2a"/><path d="m334.3125 88.292969-1.023438-67.511719c-.03125-11.464844-9.371093-20.78125-20.84375-20.78125h-23.117187c11.472656 0 20.8125 9.316406 20.84375 20.78125l1.023437 67.511719c.003907.039062.003907.078125.003907.117187 0 11.492188-9.351563 20.84375-20.847657 20.84375h23.117188c11.496094 0 20.847656-9.351562 20.847656-20.84375 0-.039062 0-.078125-.003906-.117187zm0 0" fill="#e24a2a"/><path d="m512 88.292969-1.023438-67.507813c-.03125-11.464844-9.371093-20.785156-20.847656-20.785156h-23.117187c11.476562 0 20.8125 9.320312 20.847656 20.785156l1.023437 67.507813v.117187c0 11.492188-9.351562 20.84375-20.84375 20.84375h23.117188c11.492188 0 20.84375-9.351562 20.84375-20.84375 0-.039062 0-.078125 0-.117187zm0 0" fill="#e24a2a"/><path d="m512 209.050781-1.023438-67.511719c-.035156-11.464843-9.371093-20.78125-20.847656-20.78125h-23.117187c11.476562 0 20.8125 9.316407 20.847656 20.78125l1.023437 67.511719v.113281c0 11.496094-9.351562 20.847657-20.84375 20.847657h23.117188c11.492188 0 20.84375-9.351563 20.84375-20.847657 0-.035156 0-.074218 0-.113281zm0 0" fill="#e24a2a"/><path d="m247.089844 450.039062-1.023438-67.511718c-.035156-11.464844-9.375-20.78125-20.847656-20.78125h-23.117188c11.472657 0 20.8125 9.316406 20.847657 20.78125l1.023437 67.511718v.113282c0 11.496094-9.351562 20.847656-20.847656 20.847656h23.117188c11.496093 0 20.847656-9.351562 20.847656-20.847656 0-.039063 0-.078125 0-.113282zm0 0" fill="#e24a2a"/><path d="m512 450.039062-1.023438-67.511718c-.035156-11.464844-9.371093-20.78125-20.847656-20.78125h-23.117187c11.476562 0 20.8125 9.316406 20.847656 20.78125l1.023437 67.511718v.113282c0 11.496094-9.351562 20.847656-20.84375 20.847656h23.117188c11.492188 0 20.84375-9.351562 20.84375-20.847656 0-.039063 0-.078125 0-.113282zm0 0" fill="#e24a2a"/><path d="m159.644531 328.734375-1.023437-67.511719c-.035156-11.464844-9.371094-20.785156-20.847656-20.785156h-23.117188c11.472656 0 20.8125 9.320312 20.847656 20.785156l1.023438 67.511719v.113281c0 11.496094-9.351563 20.847656-20.847656 20.847656h23.121093c11.492188 0 20.84375-9.351562 20.84375-20.847656 0-.039062 0-.074218 0-.113281zm0 0" fill="#e24a2a"/><path d="m512 328.734375-1.023438-67.511719c-.035156-11.464844-9.371093-20.78125-20.847656-20.78125h-23.117187c11.476562 0 20.8125 9.316406 20.847656 20.78125l1.023437 67.511719v.113281c0 11.496094-9.351562 20.847656-20.84375 20.847656h23.117188c11.492188 0 20.84375-9.351562 20.84375-20.847656 0-.039062 0-.074218 0-.113281zm0 0" fill="#e24a2a"/><path d="m256 79.699219c-85.910156 0-155.804688 69.890625-155.804688 155.800781s69.894532 155.800781 155.804688 155.800781 155.800781-69.890625 155.800781-155.800781-69.890625-155.800781-155.800781-155.800781zm0 0" fill="#fff4f1"/><path d="m256 79.699219c-4.058594 0-8.082031.15625-12.0625.460937 80.296875 6.179688 143.742188 73.488282 143.742188 155.339844s-63.445313 149.160156-143.742188 155.339844c3.980469.304687 8.003906.460937 12.0625.460937 85.910156 0 155.800781-69.890625 155.800781-155.800781s-69.890625-155.800781-155.800781-155.800781zm0 0" fill="#f4f4f5"/><path d="m256 121.644531c-34.453125 0-62.484375 28.03125-62.484375 62.484375v52.121094c0 4.164062 3.375 7.539062 7.539063 7.539062h26.636718c4.164063 0 7.539063-3.375 7.539063-7.539062v-52.121094c0-11.449218 9.316406-20.765625 20.769531-20.765625 11.449219 0 20.769531 9.316407 20.769531 20.765625v52.121094c0 4.164062 3.371094 7.539062 7.535157 7.539062h26.640624c4.164063 0 7.539063-3.375 7.539063-7.539062v-52.121094c0-34.453125-28.03125-62.484375-62.484375-62.484375zm0 0" fill="#4890e3"/><path d="m256 121.644531c-4.125 0-8.15625.414063-12.0625 1.179688 28.703125 5.636719 50.425781 30.976562 50.425781 61.304687v52.121094c0 4.164062-3.375 7.539062-7.539062 7.539062h24.121093c4.164063 0 7.539063-3.375 7.539063-7.539062v-52.121094c0-34.453125-28.03125-62.484375-62.484375-62.484375zm0 0" fill="#2970d6"/><path d="m298.488281 200.839844h-84.976562c-15.855469 0-28.757813 12.902344-28.757813 28.757812v78.882813c0 15.855469 12.902344 28.757812 28.757813 28.757812h84.976562c15.855469 0 28.757813-12.902343 28.757813-28.757812v-78.882813c0-15.855468-12.902344-28.757812-28.757813-28.757812zm0 0" fill="#f9cd45"/><path d="m298.488281 200.839844h-24.121093c15.855468 0 28.753906 12.902344 28.753906 28.757812v78.882813c0 15.855469-12.898438 28.757812-28.753906 28.757812h24.121093c15.855469 0 28.757813-12.902343 28.757813-28.757812v-78.882813c0-15.855468-12.902344-28.757812-28.757813-28.757812zm0 0" fill="#f8c03c"/><path d="m256 235.765625c-13.617188 0-24.695312 11.078125-24.695312 24.695313v34.3125c0 4.164062 3.375 7.539062 7.539062 7.539062h34.3125c4.164062 0 7.539062-3.375 7.539062-7.539062v-34.3125c0-13.617188-11.078124-24.695313-24.695312-24.695313zm0 0" fill="#646464"/><path d="m256 235.765625c-3.578125 0-6.980469.769531-10.050781 2.144531 8.617187 3.859375 14.644531 12.511719 14.644531 22.550782v34.316406c0 4.160156-3.375 7.535156-7.539062 7.535156h20.101562c4.164062 0 7.539062-3.375 7.539062-7.535156v-34.316406c0-13.617188-11.078124-24.695313-24.695312-24.695313zm0 0" fill="#4b4b4b"/></svg>