<svg height="512pt" viewBox="0 -12 512 512" width="512pt" xmlns="http://www.w3.org/2000/svg"><g fill="#d0cfd1"><path d="m450.472656 191.128906h-396.082031c-4.21875 0-7.640625-3.421875-7.640625-7.640625v-55.304687c0-4.222656 3.421875-7.644532 7.640625-7.644532 4.222656 0 7.644531 3.421876 7.644531 7.644532v47.660156h380.796875v-47.660156c0-4.222656 3.421875-7.644532 7.640625-7.644532 4.222656 0 7.644532 3.421876 7.644532 7.644532v55.304687c0 4.21875-3.421876 7.640625-7.644532 7.640625zm0 0"/><path d="m257.527344 231.890625c-4.21875 0-7.640625-3.421875-7.640625-7.644531v-96.0625c0-4.222656 3.421875-7.644532 7.640625-7.644532 4.222656 0 7.644531 3.421876 7.644531 7.644532v96.0625c0 4.222656-3.421875 7.644531-7.644531 7.644531zm0 0"/><path d="m286.414062 231.890625h-55.074218c-4.222656 0-7.644532-3.421875-7.644532-7.644531 0-4.21875 3.421876-7.640625 7.644532-7.640625h55.074218c4.222657 0 7.644532 3.421875 7.644532 7.640625 0 4.222656-3.421875 7.644531-7.644532 7.644531zm0 0"/></g><path d="m247.105469 247.058594h-112.296875c-4.222656 0-7.644532 3.421875-7.644532 7.640625v178.019531c0 4.222656 3.421876 7.644531 7.644532 7.644531h112.296875c4.222656 0 7.644531-3.421875 7.644531-7.644531v-178.019531c0-4.21875-3.421875-7.640625-7.644531-7.640625zm0 0" fill="#f8c03c"/><path d="m380.25 295.0625h-245.441406c-4.222656 0-7.644532 3.421875-7.644532 7.644531v178.015625c0 4.222656 3.421876 7.644532 7.644532 7.644532h245.441406c4.21875 0 7.640625-3.421876 7.640625-7.644532v-178.015625c0-4.222656-3.421875-7.644531-7.640625-7.644531zm0 0" fill="#f9cd45"/><path d="m380.25 295.0625h-24.457031c4.21875 0 7.640625 3.421875 7.640625 7.644531v178.015625c0 4.222656-3.421875 7.644532-7.640625 7.644532h24.457031c4.21875 0 7.640625-3.421876 7.640625-7.644532v-178.015625c0-4.222656-3.421875-7.644531-7.640625-7.644531zm0 0" fill="#f8c03c"/><path d="m65.058594 0h-57.414063c-4.222656 0-7.644531 3.421875-7.644531 7.644531v91.015625c0 4.21875 3.421875 7.640625 7.644531 7.640625h57.414063c4.222656 0 7.644531-3.421875 7.644531-7.640625v-91.015625c0-4.222656-3.421875-7.644531-7.644531-7.644531zm0 0" fill="#f8c03c"/><path d="m133.132812 29.523438h-125.488281c-4.222656 0-7.644531 3.421874-7.644531 7.644531v91.015625c0 4.21875 3.421875 7.640625 7.644531 7.640625h125.488281c4.21875 0 7.640626-3.421875 7.640626-7.640625v-91.015625c0-4.222657-3.421876-7.644531-7.640626-7.644531zm0 0" fill="#f9cd45"/><path d="m133.132812 29.523438h-24.457031c4.21875 0 7.640625 3.421874 7.640625 7.644531v91.015625c0 4.21875-3.421875 7.640625-7.640625 7.640625h24.457031c4.21875 0 7.640626-3.421875 7.640626-7.640625v-91.015625c0-4.222657-3.421876-7.644531-7.640626-7.644531zm0 0" fill="#f8c03c"/><path d="m252.199219 0h-57.414063c-4.222656 0-7.644531 3.421875-7.644531 7.644531v91.015625c0 4.21875 3.421875 7.640625 7.644531 7.640625h57.414063c4.222656 0 7.644531-3.421875 7.644531-7.640625v-91.015625c0-4.222656-3.421875-7.644531-7.644531-7.644531zm0 0" fill="#f8c03c"/><path d="m320.273438 29.523438h-125.488282c-4.222656 0-7.644531 3.421874-7.644531 7.644531v91.015625c0 4.21875 3.421875 7.640625 7.644531 7.640625h125.488282c4.222656 0 7.640624-3.421875 7.640624-7.640625v-91.015625c0-4.222657-3.417968-7.644531-7.640624-7.644531zm0 0" fill="#f9cd45"/><path d="m320.273438 29.523438h-24.457032c4.222656 0 7.640625 3.421874 7.640625 7.644531v91.015625c0 4.21875-3.417969 7.640625-7.640625 7.640625h24.457032c4.222656 0 7.640624-3.421875 7.640624-7.640625v-91.015625c0-4.222657-3.417968-7.644531-7.640624-7.644531zm0 0" fill="#f8c03c"/><path d="m436.285156 0h-57.417968c-4.21875 0-7.640626 3.421875-7.640626 7.644531v91.015625c0 4.21875 3.421876 7.640625 7.640626 7.640625h57.417968c4.222656 0 7.640625-3.421875 7.640625-7.640625v-91.015625c0-4.222656-3.421875-7.644531-7.640625-7.644531zm0 0" fill="#f8c03c"/><path d="m504.355469 29.523438h-125.488281c-4.21875 0-7.640626 3.421874-7.640626 7.644531v91.015625c0 4.21875 3.421876 7.640625 7.640626 7.640625h125.488281c4.222656 0 7.644531-3.421875 7.644531-7.640625v-91.015625c0-4.222657-3.421875-7.644531-7.644531-7.644531zm0 0" fill="#f9cd45"/><path d="m504.355469 29.523438h-24.453125c4.21875 0 7.640625 3.421874 7.640625 7.644531v91.015625c0 4.21875-3.421875 7.640625-7.640625 7.640625h24.453125c4.222656 0 7.644531-3.421875 7.644531-7.640625v-91.015625c0-4.222657-3.421875-7.644531-7.644531-7.644531zm0 0" fill="#f8c03c"/><path d="m279.324219 423.789062c-4.21875 0-7.640625-3.421874-7.640625-7.640624 0-11.589844-9.429688-21.015626-21.015625-21.015626-11.589844 0-21.015625 9.425782-21.015625 21.015626 0 4.21875-3.421875 7.640624-7.644532 7.640624-4.21875 0-7.640624-3.421874-7.640624-7.640624 0-20.015626 16.285156-36.300782 36.300781-36.300782s36.300781 16.285156 36.300781 36.300782c0 4.21875-3.421875 7.640624-7.644531 7.640624zm0 0" fill="#fff4f1"/><path d="m316.667969 423.789062c-4.222657 0-7.644531-3.421874-7.644531-7.640624 0-32.179688-26.175782-58.355469-58.355469-58.355469-32.179688 0-58.355469 26.175781-58.355469 58.355469 0 4.21875-3.421875 7.640624-7.644531 7.640624-4.222657 0-7.644531-3.421874-7.644531-7.640624 0-40.605469 33.039062-73.644532 73.644531-73.644532s73.640625 33.039063 73.640625 73.644532c0 4.21875-3.417969 7.640624-7.640625 7.640624zm0 0" fill="#fff4f1"/></svg>