<svg height="512pt" viewBox="0 0 512 512" width="512pt" xmlns="http://www.w3.org/2000/svg"><path d="m437.019531 74.980469c-48.351562-48.351563-112.640625-74.980469-181.019531-74.980469-68.382812 0-132.667969 26.628906-181.019531 74.980469-48.351563 48.351562-74.980469 112.640625-74.980469 181.019531 0 68.382812 26.628906 132.667969 74.980469 181.019531 48.351562 48.351563 112.640625 74.980469 181.019531 74.980469s132.667969-26.628906 181.019531-74.980469c48.351563-48.351562 74.980469-112.640625 74.980469-181.019531s-26.628906-132.667969-74.980469-181.019531zm-102.003906 8.675781c22.425781 45.90625 34.777344 107.113281 34.777344 172.34375s-12.351563 126.433594-34.777344 172.34375c-21.585937 44.183594-49.648437 68.515625-79.015625 68.515625-29.371094 0-57.429688-24.332031-79.015625-68.515625-22.429687-45.910156-34.78125-107.113281-34.78125-172.34375s12.351563-126.4375 34.78125-172.34375c21.585937-44.183594 49.644531-68.515625 79.015625-68.515625 29.367188 0 57.429688 24.332031 79.015625 68.515625zm-249.328125 342.65625c-45.492188-45.492188-70.546875-105.976562-70.546875-170.3125s25.054687-124.820312 70.546875-170.3125c33.132812-33.132812 74.21875-55.410156 118.953125-65.078125-15.355469 13.03125-29.347656 32.019531-41.261719 56.402344-23.417968 47.9375-36.316406 111.5-36.316406 178.988281s12.898438 131.054688 36.316406 178.988281c11.914063 24.382813 25.90625 43.371094 41.261719 56.402344-44.734375-9.667969-85.820313-31.945313-118.953125-65.078125zm340.625 0c-33.132812 33.132812-74.222656 55.410156-118.957031 65.078125 15.355469-13.03125 29.351562-32.019531 41.261719-56.402344 23.421874-47.933593 36.316406-111.5 36.316406-178.988281 0-67.484375-12.894532-131.050781-36.316406-178.988281-11.910157-24.382813-25.90625-43.371094-41.261719-56.402344 44.734375 9.667969 85.824219 31.945313 118.957031 65.078125 45.492188 45.492188 70.546875 105.976562 70.546875 170.3125s-25.054687 124.820312-70.546875 170.3125zm0 0" fill="#d0cfd1"/><path d="m62.605469 53.683594c-25.570313 0-46.375 20.800781-46.375 46.371094 0 25.570312 20.800781 46.375 46.375 46.375 25.570312 0 46.371093-20.804688 46.371093-46.375 0-25.570313-20.800781-46.371094-46.371093-46.371094zm0 0" fill="#f9cd45"/><path d="m62.605469 379.519531c-25.570313 0-46.375 20.804688-46.375 46.375 0 25.570313 20.800781 46.375 46.375 46.375 25.570312 0 46.371093-20.804687 46.371093-46.375 0-25.570312-20.800781-46.375-46.371093-46.375zm0 0" fill="#f45a3c"/><path d="m456.296875 62.6875c-25.570313 0-46.375 20.804688-46.375 46.375s20.804687 46.371094 46.375 46.371094 46.375-20.800782 46.375-46.371094-20.804687-46.375-46.375-46.375zm0 0" fill="#00bf9e"/><path d="m464.914062 336.503906c-25.570312 0-46.375 20.800782-46.375 46.371094s20.804688 46.375 46.375 46.375c25.570313 0 46.371094-20.800781 46.371094-46.375 0-25.570312-20.800781-46.371094-46.371094-46.371094zm0 0" fill="#91bcee"/><path d="m62.605469 53.683594c-4.191407 0-8.25.566406-12.113281 1.613281 19.714843 5.34375 34.261718 23.378906 34.261718 44.757813 0 21.378906-14.550781 39.417968-34.261718 44.757812 3.863281 1.046875 7.921874 1.617188 12.113281 1.617188 25.570312 0 46.371093-20.804688 46.371093-46.375 0-25.570313-20.800781-46.371094-46.371093-46.371094zm0 0" fill="#f8c03c"/><path d="m62.605469 379.519531c-4.191407 0-8.25.570313-12.113281 1.617188 19.714843 5.339843 34.261718 23.378906 34.261718 44.757812 0 21.378907-14.550781 39.417969-34.261718 44.757813 3.863281 1.046875 7.921874 1.617187 12.113281 1.617187 25.570312 0 46.371093-20.804687 46.371093-46.375 0-25.570312-20.800781-46.375-46.371093-46.375zm0 0" fill="#e24a2a"/><path d="m456.296875 62.6875c-4.191406 0-8.25.570312-12.113281 1.613281 19.714844 5.34375 34.261718 23.378907 34.261718 44.761719 0 21.378906-14.546874 39.417969-34.261718 44.757812 3.863281 1.046876 7.921875 1.613282 12.113281 1.613282 25.570313 0 46.375-20.800782 46.375-46.371094s-20.804687-46.375-46.375-46.375zm0 0" fill="#00a983"/><path d="m464.914062 336.503906c-4.191406 0-8.25.566406-12.113281 1.613282 19.714844 5.34375 34.261719 23.378906 34.261719 44.757812 0 21.382812-14.550781 39.417969-34.261719 44.761719 3.863281 1.046875 7.921875 1.613281 12.113281 1.613281 25.570313 0 46.371094-20.800781 46.371094-46.375 0-25.570312-20.800781-46.371094-46.371094-46.371094zm0 0" fill="#4890e3"/><path d="m256 237.40625c-42.605469 0-77.265625 34.664062-77.265625 77.265625v29.152344c0 4.179687 3.390625 7.570312 7.570313 7.570312h139.390624c4.179688 0 7.570313-3.390625 7.570313-7.570312v-29.152344c0-42.605469-34.660156-77.265625-77.265625-77.265625zm0 0" fill="#4890e3"/><path d="m256 237.40625c-4.296875 0-8.507812.371094-12.617188 1.046875 36.621094 6.042969 64.648438 37.914063 64.648438 76.21875v29.152344c0 4.179687-3.390625 7.570312-7.570312 7.570312h25.234374c4.179688 0 7.570313-3.390625 7.570313-7.570312v-29.152344c0-42.605469-34.660156-77.265625-77.265625-77.265625zm0 0" fill="#2970d6"/><path d="m256 156.539062c-26.621094 0-48.277344 24.953126-48.277344 55.625 0 30.671876 21.65625 55.628907 48.277344 55.628907 26.617188 0 48.277344-24.957031 48.277344-55.628907 0-30.671874-21.660156-55.625-48.277344-55.625zm0 0" fill="#f0bca6"/><path d="m256 156.539062c-4.183594 0-8.242188.617188-12.113281 1.773438 20.777343 6.210938 36.164062 28 36.164062 53.851562 0 25.855469-15.386719 47.644532-36.164062 53.851563 3.871093 1.160156 7.929687 1.777344 12.113281 1.777344 26.617188 0 48.277344-24.957031 48.277344-55.628907 0-30.671874-21.660156-55.625-48.277344-55.625zm0 0" fill="#e3ac90"/></svg>