<?xml version="1.0" encoding="iso-8859-1"?>
<!-- Generator: Adobe Illustrator 19.0.0, SVG Export Plug-In . SVG Version: 6.00 Build 0)  -->
<svg version="1.1" id="Capa_1" xmlns="http://www.w3.org/2000/svg" xmlns:xlink="http://www.w3.org/1999/xlink" x="0px" y="0px"
	 viewBox="0 0 511.995 511.995" style="enable-background:new 0 0 511.995 511.995;" xml:space="preserve">
<g transform="matrix(1.25 0 0 -1.25 0 45)">
	<path style="fill:#E1E8ED;" d="M258.04,9.339L12.408-236.281l122.816-122.816l245.62,245.632
		c22.602,22.602,13.443,68.419-20.471,102.333C326.47,22.782,280.641,31.952,258.04,9.339z"/>
	<path style="fill:#99AAB5;" d="M360.36-11.134c-21.317,21.328-47.369,32.872-69.38,32.872c-12.991,0-24.569-4.018-32.953-12.4
		L12.405-236.286l64.332-64.332L363.243-14.111C362.302-13.109,361.343-12.117,360.36-11.134z"/>
	<g>
		<path style="fill:#66757F;" d="M114.748-256.753c-33.903,33.914-79.732,43.085-102.344,20.471
			c-22.613-22.625-13.443-68.442,20.471-102.333c33.914-33.926,79.732-43.085,102.344-20.483
			C157.832-336.484,148.662-290.679,114.748-256.753"/>
		<path style="fill:#CCD6DD;" d="M363.298-14.048L315.338,33.9L69.718-211.72l45.029-45.029
			c33.914-33.926,43.085-79.732,20.471-102.344l245.62,245.631c21.954,21.942,13.883,65.755-17.635,99.311L363.298-14.048z"/>
		<path style="fill:#E1E8ED;" d="M379.575,2.22c31.517-33.555,39.599-77.369,17.635-99.311l-245.62-245.62
			c22.613,22.602,13.454,68.419-20.471,102.333l-28.657,28.657L348.081,33.9l31.587-31.575L379.575,2.22z"/>
		<g>
			<path style="fill:#99AAB5;" d="M21.986-248.961c-16.233-16.222-9.703-50.611,14.833-78.26
				c22.185-24.987,57.292-46.408,83.216-24.582c8.812,7.33,13.466,18.619,13.27,31.668c-0.324,22.856-15.029,48.55-38.361,67.041
				c-3.751,2.988-9.124,2.316-12.204-1.401c-2.976-3.763-2.351-9.217,1.412-12.193c19.059-15.11,31.54-36.196,31.784-53.702
				c0.081-5.488-1.088-13.084-7.086-18.133c-17.519-14.751-45.354,7.41-59.04,22.81c-19.394,21.861-23.759,46.245-15.539,54.466
				c2.119,2.13,4.759,2.686,8.047,1.714c10.154-3.033,23.158-19.244,29.34-48.689c0.984-4.701,5.593-7.712,10.282-6.728
				c4.689,0.996,7.7,5.593,6.704,10.282c-6.82,32.536-22.671,56.192-41.359,61.773C37.861-240.08,28.656-242.303,21.986-248.961"/>
			<path style="fill:#99AAB5;" d="M325.597-9.086c-0.232-0.22-0.44-0.44-0.637-0.695c-3.01-3.728-2.42-9.193,1.309-12.204
				c0.359-0.289,35.882-29.398,37.701-67.353c0.243-4.782,4.33-8.475,9.101-8.244c4.805,0.243,8.487,4.319,8.267,9.101
				c-2.212,45.852-42.471,78.666-44.196,80.032C333.655-5.647,328.688-5.983,325.597-9.086"/>
			<path style="fill:#99AAB5;" d="M301.026-33.645c-0.22-0.22-0.428-0.44-0.637-0.695c-2.999-3.728-2.409-9.193,1.32-12.204
				c0.359-0.289,35.882-29.398,37.701-67.353c0.243-4.793,4.319-8.475,9.101-8.244c4.793,0.243,8.475,4.307,8.256,9.101
				c-2.212,45.84-42.471,78.655-44.185,80.032C309.097-30.207,304.129-30.542,301.026-33.645"/>
			<path style="fill:#99AAB5;" d="M202.775-131.894c-0.22-0.22-0.428-0.44-0.625-0.695c-3.01-3.728-2.42-9.193,1.309-12.204
				c0.359-0.289,35.882-29.398,37.701-67.353c0.243-4.782,4.319-8.475,9.101-8.244c4.793,0.255,8.475,4.307,8.256,9.101
				c-2.212,45.84-42.471,78.655-44.185,80.032C210.846-128.455,205.878-128.791,202.775-131.894"/>
			<path style="fill:#99AAB5;" d="M145.47-189.2c-0.22-0.232-0.44-0.451-0.637-0.707c-3.01-3.728-2.409-9.193,1.309-12.204
				c0.37-0.289,35.894-29.398,37.712-67.353c0.232-4.782,4.319-8.475,9.101-8.233c4.793,0.232,8.475,4.307,8.256,9.101
				c-2.212,45.84-42.471,78.655-44.185,80.032C153.541-185.773,148.562-186.097,145.47-189.2"/>
		</g>
		<path style="fill:#5DADEC;" d="M283.262-185.697c15.006,15.608,40.41,39.171,43.49,42.39c7.098,7.433-17.843,63.359-38.233,79.36
			c-4.47,3.497-9.946,0.66-12.296-1.749c-17.322-17.727-31.066-31.482-42.575-42.934c-2.686-2.663-4.226-7.538-0.451-11.023
			c12.354-11.393,34.575-39.645,40.85-65.571C274.786-188.233,280.147-188.951,283.262-185.697"/>
	</g>
</g>
<g>
</g>
<g>
</g>
<g>
</g>
<g>
</g>
<g>
</g>
<g>
</g>
<g>
</g>
<g>
</g>
<g>
</g>
<g>
</g>
<g>
</g>
<g>
</g>
<g>
</g>
<g>
</g>
<g>
</g>
</svg>
