<?xml version="1.0" encoding="iso-8859-1"?>
<!-- Generator: Adobe Illustrator 19.0.0, SVG Export Plug-In . SVG Version: 6.00 Build 0)  -->
<svg version="1.1" id="Capa_1" xmlns="http://www.w3.org/2000/svg" xmlns:xlink="http://www.w3.org/1999/xlink" x="0px" y="0px"
	 viewBox="0 0 512 512" style="enable-background:new 0 0 512 512;" xml:space="preserve">
<path style="fill:#CCD6DD;" d="M437.532,455.111c0,31.416-25.472,56.889-56.889,56.889H67.755
	c-31.416,0-56.889-25.472-56.889-56.889V56.889C10.866,25.472,36.338,0,67.755,0h312.889c31.416,0,56.889,25.472,56.889,56.889
	V455.111z"/>
<g>
	<path style="fill:#99AAB5;" d="M380.643,341.333c0,7.865-6.357,14.222-14.222,14.222H81.977c-7.85,0-14.222-6.357-14.222-14.222
		c0-7.865,6.372-14.222,14.222-14.222h284.444C374.286,327.111,380.643,333.468,380.643,341.333"/>
	<path style="fill:#99AAB5;" d="M153.088,398.222c0,7.865-6.372,14.222-14.222,14.222H81.977c-7.85,0-14.222-6.357-14.222-14.222
		c0-7.865,6.372-14.222,14.222-14.222h56.889C146.717,384,153.088,390.357,153.088,398.222"/>
	<path style="fill:#99AAB5;" d="M380.643,113.778c0,7.85-6.357,14.222-14.222,14.222H81.977c-7.85,0-14.222-6.372-14.222-14.222
		s6.372-14.222,14.222-14.222h284.444C374.286,99.556,380.643,105.927,380.643,113.778"/>
	<path style="fill:#99AAB5;" d="M380.643,170.667c0,7.865-6.357,14.222-14.222,14.222H81.977c-7.85,0-14.222-6.357-14.222-14.222
		c0-7.865,6.372-14.222,14.222-14.222h284.444C374.286,156.444,380.643,162.802,380.643,170.667"/>
	<path style="fill:#99AAB5;" d="M380.643,227.556c0,7.865-6.357,14.222-14.222,14.222H81.977c-7.85,0-14.222-6.357-14.222-14.222
		s6.372-14.222,14.222-14.222h284.444C374.286,213.333,380.643,219.69,380.643,227.556"/>
	<path style="fill:#99AAB5;" d="M380.643,284.444c0,7.865-6.357,14.222-14.222,14.222H81.977c-7.85,0-14.222-6.357-14.222-14.222
		c0-7.865,6.372-14.222,14.222-14.222h284.444C374.286,270.222,380.643,276.579,380.643,284.444"/>
</g>
<path style="fill:#66757F;" d="M437.532,89.202c-11.762-7.609-26.126-8.234-35.84-0.327l-11.277,9.188l-21.105,17.224l-1.408,1.138
	l-33.792,27.563L165.164,281.743c-6.215,5.077-11.278,17.323-16.683,29.496c-5.39,12.074-13.796,40.548-20.523,62.436
	c-2.105,3.556-15.147,26.255-7.837,34.901c7.381,8.747,33.081,0.128,36.523-1.095c23.126-2.461,53.064-5.305,66.105-8.249
	c13.156-3.001,26.368-5.603,32.584-10.695c0.114-0.086,0.142-0.242,0.256-0.327l168.633-137.472l11.264-9.188l2.048-1.664V89.202
	H437.532z"/>
<path style="fill:#D99E82;" d="M254.699,320.378c0,0-18.119-26.752-30.108-36.31c-9.557-11.975-36.267-30.095-36.267-30.095
	c-6.372-6.344-16.939-6.827-23.154-0.612c-6.215,6.23-11.278,19.428-16.696,32.584c-6.699,16.299-18.148,59.079-25.145,81.806
	c-1.181,3.883,7.353-6.4,7.168-2.987c-0.142,2.659,0.384,5.603,1.038,8.264c-1.209,1.323-2.062,2.247-2.062,2.247
	c0.797,0.27,1.821,0.597,2.972,0.967c0.356,1.166,0.711,2.19,0.967,2.987c0,0,0.939-0.868,2.261-2.077
	c2.659,0.668,5.603,1.194,8.264,1.052c3.413-0.185-6.87,8.348-3.001,7.154c22.727-7.012,65.536-18.432,81.821-25.13
	c13.141-5.419,26.368-10.482,32.584-16.696C261.554,337.316,261.086,326.748,254.699,320.378"/>
<path style="fill:#EA596E;" d="M356.644,61.883c-12.459,12.444-12.459,32.612,0,45.056l45.042,45.056
	c12.459,12.43,32.625,12.43,45.056,0l45.07-45.056c12.43-12.444,12.43-32.612,0-45.056l-45.07-45.056
	c-12.43-12.444-32.597-12.444-45.056,0L356.644,61.883z"/>
<path style="fill:#FFCC4D;" d="M165.164,253.362c0,0,11.307,11.307,45.084,45.084c33.763,33.763,44.999,45.028,44.999,45.028
	l168.975-168.945l-90.126-90.112L165.164,253.362z"/>
<path style="fill:#292F33;" d="M157.323,380.334c0,0-29.298,16.114-37.206,8.192c-7.922-7.936,8.264-37.135,8.264-37.135
	S156.143,351.903,157.323,380.334"/>
<path style="fill:#CCD6DD;" d="M390.422,28.09l90.112,90.112l-56.305,56.32L334.103,84.41L390.422,28.09z"/>
<g>
	<path style="fill:#99AAB5;" d="M367.894,50.619l90.112,90.098l11.278-11.25l-90.112-90.112L367.894,50.619z"/>
	<path style="fill:#99AAB5;" d="M345.381,73.146l90.112,90.112l11.25-11.264l-90.098-90.112L345.381,73.146z"/>
</g>
<g>
</g>
<g>
</g>
<g>
</g>
<g>
</g>
<g>
</g>
<g>
</g>
<g>
</g>
<g>
</g>
<g>
</g>
<g>
</g>
<g>
</g>
<g>
</g>
<g>
</g>
<g>
</g>
<g>
</g>
</svg>
