<?xml version="1.0" encoding="iso-8859-1"?>
<!-- Generator: Adobe Illustrator 19.0.0, SVG Export Plug-In . SVG Version: 6.00 Build 0)  -->
<svg version="1.1" id="Capa_1" xmlns="http://www.w3.org/2000/svg" xmlns:xlink="http://www.w3.org/1999/xlink" x="0px" y="0px"
	 viewBox="0 0 512 512" style="enable-background:new 0 0 512 512;" xml:space="preserve">
<path style="fill:#226699;" d="M455.111,106.667H56.889C25.472,106.667,0,132.139,0,163.556v213.333
	c0,31.416,25.472,56.889,56.889,56.889H219.25C226.646,442.255,240.256,448,256,448s29.354-5.745,36.75-14.222h162.361
	c31.416,0,56.889-25.472,56.889-56.889V163.556C512,132.139,486.528,106.667,455.111,106.667"/>
<path style="fill:#292F33;" d="M284.444,391.111c0,15.701-12.729,28.444-28.444,28.444c-15.701,0-28.444-12.744-28.444-28.444v-256
	c0-15.701,12.744-28.444,28.444-28.444c15.716,0,28.444,12.744,28.444,28.444V391.111z"/>
<g transform="matrix(1.25 0 0 -1.25 22.5 32.5)">
	<path style="fill:#99AAB5;" d="M186.8-275.511c0-12.561-10.183-22.756-22.756-22.756H27.511c-12.561,0-22.756,10.195-22.756,22.756
		v204.8c0,12.561,10.195,22.756,22.756,22.756h136.533c12.572,0,22.756-10.195,22.756-22.756V-275.511z"/>
	<path style="fill:#E1E8ED;" d="M186.8-275.511c-11.366,22.733-41.608,22.756-45.511,22.756c-22.756,0-56.889-22.756-91.022-22.756
		c-11.378,0-22.756,10.195-22.756,22.756v182.044c0,12.561,11.378,22.756,22.756,22.756c37.035,0,68.267,22.756,91.022,22.756
		c34.133,0,45.511-21.573,45.511-34.133L186.8-275.511L186.8-275.511z"/>
</g>
<path style="fill:#99AAB5;" d="M483.556,376.889c0,15.701-12.729,28.444-28.444,28.444H284.444
	c-15.701,0-28.444-12.744-28.444-28.444v-256c0-15.701,12.744-28.444,28.444-28.444h170.667c15.716,0,28.444,12.744,28.444,28.444
	L483.556,376.889L483.556,376.889z"/>
<path style="fill:#CCD6DD;" d="M256,376.889c14.208-28.416,52.01-28.444,56.889-28.444c28.444,0,71.111,28.444,113.778,28.444
	c14.222,0,28.444-12.744,28.444-28.444V120.889c0-15.701-14.222-28.444-28.444-28.444C380.359,92.444,341.333,64,312.889,64
	C270.222,64,256,90.966,256,106.667L256,376.889L256,376.889z"/>
<g>
</g>
<g>
</g>
<g>
</g>
<g>
</g>
<g>
</g>
<g>
</g>
<g>
</g>
<g>
</g>
<g>
</g>
<g>
</g>
<g>
</g>
<g>
</g>
<g>
</g>
<g>
</g>
<g>
</g>
</svg>
