<?xml version="1.0" encoding="iso-8859-1"?>
<!-- Generator: Adobe Illustrator 19.0.0, SVG Export Plug-In . SVG Version: 6.00 Build 0)  -->
<svg version="1.1" id="Capa_1" xmlns="http://www.w3.org/2000/svg" xmlns:xlink="http://www.w3.org/1999/xlink" x="0px" y="0px"
	 viewBox="0 0 512 512" style="enable-background:new 0 0 512 512;" xml:space="preserve">
<path style="fill:#292F33;" d="M384,455.111C384,486.529,358.527,512,327.111,512H184.889C153.471,512,128,486.527,128,455.111
	V56.889C128,25.472,153.472,0,184.889,0h142.222C358.529,0,384,25.472,384,56.889V455.111z"/>
<path style="fill:#77B255;" d="M255.978,355.555c31.431,0,56.902,25.473,56.902,56.889s-25.473,56.889-56.902,56.889
	c-31.416,0-56.889-25.473-56.889-56.889S224.562,355.555,255.978,355.555"/>
<path style="fill:#FFCC4D;" d="M255.978,199.111c31.431,0,56.902,25.473,56.902,56.889s-25.473,56.889-56.902,56.889
	c-31.416,0-56.889-25.473-56.889-56.889S224.562,199.111,255.978,199.111"/>
<path style="fill:#DD2E44;" d="M255.978,42.666c31.431,0,56.902,25.472,56.902,56.889s-25.473,56.889-56.902,56.889
	c-31.416,0-56.889-25.473-56.889-56.889S224.562,42.666,255.978,42.666"/>
<g>
</g>
<g>
</g>
<g>
</g>
<g>
</g>
<g>
</g>
<g>
</g>
<g>
</g>
<g>
</g>
<g>
</g>
<g>
</g>
<g>
</g>
<g>
</g>
<g>
</g>
<g>
</g>
<g>
</g>
</svg>
